<?xml version="1.0" encoding="UTF-8"?>
<svg width="788px" height="882px" viewBox="0 0 788 882" version="1.1" xmlns="http://www.w3.org/2000/svg" xmlns:xlink="http://www.w3.org/1999/xlink">
    <!-- Generator: Sketch 55.2 (78181) - https://sketchapp.com -->
    <title>Group</title>
    <desc>Created with Sketch.</desc>
    <g id="Page-1" stroke="none" stroke-width="1" fill="none" fill-rule="evenodd">
        <g id="shutterstock_288549701" transform="translate(-107.000000, -59.000000)">
            <g id="Group" transform="translate(1.000000, 0.000000)">
                <path d="M252.851,76.306 C252.851,76.306 301.847,150.605 306.116,244.736 C330.595,236.358 332.63,236.477 332.63,236.477 C332.63,236.477 319.828,156.615 262.368,77.773 C256.656,74.214 252.851,76.306 252.851,76.306" id="Fill-2" fill="#49890B"></path>
                <path d="M112.632,111.506 C112.631,111.506 216.146,224.888 281.184,271.135 C263.092,285.705 252.951,292.351 252.951,292.351 C252.951,292.351 156.115,199.805 106.559,126.008 C107.925,118.173 112.632,111.506 112.632,111.506" id="Fill-3" fill="#49890B"></path>
                <path d="M147.845,148.817 C147.845,148.817 146.434,157.816 146.391,162.976 C146.391,162.976 188.21,215.3 201.605,240.32 L253.763,294.525 C253.763,294.525 263.092,285.705 281.184,271.135 C239.626,241.584 183.322,186.926 147.845,148.817" id="Fill-4" fill="#437A08"></path>
                <path d="M141.211,81.304 C141.211,81.304 246.832,197.041 271.958,271.983 C302.417,247.696 305.446,245.183 305.446,245.183 C305.446,245.183 228.051,120.201 155.669,59.527 C143.677,65.977 141.211,81.304 141.211,81.304" id="Fill-5" fill="#49890B"></path>
                <path d="M205.291,109.166 C205.291,109.166 239.887,159.637 257.476,227.087 L274.988,269.47 C305.446,245.183 305.446,245.183 305.446,245.183 C305.446,245.183 258.076,169.299 205.291,109.166" id="Fill-6" fill="#437A08"></path>
                <path d="M257.826,276.967 C257.826,276.967 176.891,250.535 109.227,218.263 C105.288,224.586 108.775,232.09 108.775,232.09 C108.774,232.09 191.37,279.892 257.621,302.362 C261.011,294.928 257.826,276.967 257.826,276.967" id="Fill-7" fill="#69A500"></path>
                <path d="M286.666,250.376 C286.666,250.376 259.181,138.908 189.284,75.695 C197.737,69.195 207.957,71.904 207.957,71.904 C207.957,71.904 277.754,137.108 324.103,234.472 C309.836,241.602 286.666,250.376 286.666,250.376" id="Fill-8" fill="#75AA00"></path>
                <path d="M150.659,159.836 C150.659,159.836 149.715,144.225 156.68,134.758 C156.68,134.758 229.317,180.437 288.573,252.685 C279.246,272.803 259.758,279.656 259.758,279.656 C259.758,279.656 209.979,208.925 150.659,159.836" id="Fill-9" fill="#75AA00"></path>
                <path d="M272.406,262.256 C217.932,312.386 208.329,367.781 237.339,408.426 C266.35,449.071 299.054,477.91 325.083,502.384 C356.711,532.12 382.006,551.224 404.749,573.754 C427.492,596.283 457.623,631.775 504.383,673.448 C551.143,715.121 610.677,749.707 626.037,762.621 C641.397,775.535 662.605,800.763 706.481,834.755 C784.564,895.247 799.722,898.422 815.369,910.855 C834.714,926.226 869.818,947.809 885.397,938.011 C900.976,928.212 891.601,892.997 876.987,866.316 C862.845,840.496 841.598,781.572 793.85,714.206 C777.016,690.456 745.18,633.063 713.743,586.972 C669.621,522.283 612.763,465.959 594.191,441.431 C581.213,424.291 567.211,399.109 544.645,370.019 C504.925,318.817 473.303,281.265 444.464,255.773 C406.517,222.231 339.027,200.947 272.406,262.256" id="Fill-10" fill="#EA6400"></path>
                <path d="M292.766,274.523 C263.687,308.433 255.834,350.568 284.844,391.213 C313.855,431.858 336.623,454.507 362.653,478.98 C394.28,508.717 423.681,533.305 446.424,555.835 C469.167,578.364 479.674,599.202 519.674,636.455 C569.044,682.435 616.668,704.539 652.62,732.701 C668.417,745.076 688.95,776.989 731.712,812.371 C792.66,862.801 813.864,869.01 830.35,880.307 C844.262,889.841 861.045,900.484 870.044,902.949 C890.395,908.524 891.601,892.997 876.987,866.316 C862.845,840.496 841.598,781.572 793.85,714.206 C777.016,690.456 745.18,633.063 713.743,586.972 C669.621,522.283 612.763,465.959 594.191,441.431 C581.213,424.291 567.211,399.109 544.645,370.019 C504.925,318.817 473.303,281.265 444.464,255.773 C406.517,222.231 344.738,213.916 292.766,274.523" id="Fill-11" fill="#FF7900"></path>
                <path d="M417.103,265.475 C395.959,260.153 372.848,276.354 406.699,318.621 C426.896,343.841 472.069,393.715 484.334,408.232 C501.87,428.988 530.16,479.665 598.143,551.587 C649.523,605.945 680.765,622.013 705.172,651.71 C729.58,681.406 761.189,726.247 779.717,748.784 C797.074,769.897 810.917,783.483 819.561,793.128 C830.162,804.958 836.757,802.087 830.906,790.236 C821.372,770.925 798.974,739.676 781.773,714.583 C761.427,684.904 748.121,659.077 731.05,634.326 C706.785,599.146 660.494,539.167 639.509,518.289 C618.522,497.412 589.344,461.956 580.954,449.484 C572.564,437.012 534.654,378.005 514.017,355.673 C493.38,333.341 460.217,276.329 417.103,265.475" id="Fill-12" fill="#FF9F50"></path>
                <path d="M516.922,645.869 C516.922,645.869 544.898,600.429 577.091,580.414 C553.432,586.801 525.492,609.462 516.922,645.869" id="Fill-13" fill="#DB5800"></path>
                <path d="M582.686,602.664 C582.686,602.664 617.954,562.618 653.072,548.346 C628.673,550.634 597.298,568.235 582.686,602.664" id="Fill-14" fill="#DB5800"></path>
                <path d="M615.262,466.281 C600.481,474.434 586.777,487.396 577.626,505.895 C577.626,505.895 596.426,486.781 619.838,471.428 L615.262,466.281" id="Fill-15" fill="#DB5800"></path>
                <path d="M674.691,745.069 C674.691,745.07 704.974,701.133 738.158,682.807 C714.201,687.965 685.128,709.153 674.691,745.069" id="Fill-16" fill="#DB5800"></path>
                <path d="M567.225,722.341 C567.225,722.341 595.795,671.906 629.951,648.905 C604.521,656.775 575.086,682.481 567.225,722.341" id="Fill-17" fill="#DB5800"></path>
                <path d="M388.936,546.343 C388.936,546.343 420.127,493.037 457.003,468.948 C429.65,477.047 397.805,504.059 388.936,546.343" id="Fill-18" fill="#DB5800"></path>
                <path d="M362.445,430.44 C362.444,430.44 398.817,387.687 435.641,371.982 C409.877,374.888 377.093,394.008 362.445,430.44" id="Fill-19" fill="#DB5800"></path>
                <path d="M285.293,358.201 C285.293,358.201 319.913,314.016 356.073,296.84 C330.448,300.782 298.461,321.208 285.293,358.201" id="Fill-20" fill="#DB5800"></path>
                <path d="M464.797,510.448 C464.797,510.448 496.638,470.567 529.655,455.254 C506.325,458.624 477.076,476.927 464.797,510.448" id="Fill-21" fill="#DB5800"></path>
                <path d="M310.931,461.568 C310.93,461.568 335.581,416.884 365.539,396.215 C343.113,403.476 317.374,426.455 310.931,461.568" id="Fill-22" fill="#DB5800"></path>
                <path d="M474.35,285.261 C458.257,291.056 442.915,301.928 431.417,319.631 C431.417,319.631 452.645,301.958 478.558,289.839 L474.35,285.261" id="Fill-23" fill="#DB5800"></path>
                <path d="M444.89,615.724 L449.664,620.682 C449.664,620.682 466.104,592.895 486.933,577.182 C486.933,577.182 464.051,585.904 444.89,615.724" id="Fill-24" fill="#DB5800"></path>
                <path d="M681.537,800.308 C681.537,800.308 706.791,755.962 737.025,735.701 C714.504,742.658 688.456,765.285 681.537,800.308" id="Fill-25" fill="#DB5800"></path>
                <path d="M803.376,728.044 C790.764,735.456 779.783,746.09 771.512,761.435 C771.512,761.435 786.532,747.128 807.238,733.892 L803.376,728.044" id="Fill-26" fill="#DB5800"></path>
                <path d="M726.009,849.689 L731.43,853.759 C750.534,824.865 764.422,814.655 764.422,814.655 C764.422,814.655 748.423,819.091 726.009,849.689" id="Fill-27" fill="#DB5800"></path>
                <path d="M807.592,905.42 L810.976,907.529 C810.976,907.529 828.711,878.729 846.364,866.8 C832.209,870.878 818.266,884.76 807.592,905.42" id="Fill-28" fill="#DB5800"></path>
            </g>
        </g>
    </g>
</svg>