<svg xmlns="http://www.w3.org/2000/svg" width="666.287" height="126.915" viewBox="0 0 666.287 126.915">
  <title>Logo_White</title>
  <g>
    <g>
      <path d="M124.728,82.361c-3.369,11.01-13.341,19.944-28.5,19.944-17.1,0-32.25-12.434-32.25-33.8,0-19.948,14.765-33.158,30.7-33.158,19.431,0,30.827,12.82,30.827,32.768a22.027,22.027,0,0,1-.39,4.793H79.005A16.889,16.889,0,0,0,96.232,89.354c9.066,0,13.731-4.793,15.8-11.01ZM110.349,61.9c-.258-7.382-5.179-13.989-15.541-13.989A15.144,15.144,0,0,0,79.4,61.9Z" fill="#fff"/>
      <path d="M149.214,100.233c1.034,7.772,7.124,13.6,15.8,13.6,11.917,0,17.875-6.089,17.875-18.913v-6.6c-2.721,4.92-9.065,9.2-18.262,9.2-16.837,0-29.144-12.955-29.144-30.7,0-16.838,11.786-30.7,29.144-30.7,9.842,0,15.931,4.014,18.652,9.2V37.286h14.506v57.12c0,16.837-8.679,32.509-32.382,32.509-16.71,0-28.365-10.362-30.047-23.054Zm34.065-33.416c0-10.748-6.866-17.745-16.193-17.745-9.583,0-16.448,7-16.448,17.745,0,11.01,6.607,17.875,16.448,17.875C176.672,84.692,183.279,77.7,183.279,66.817Z" fill="#fff"/>
      <path d="M230.7,64.227l16.189-2.462c3.628-.517,4.666-2.331,4.666-4.531,0-5.31-3.628-9.586-11.917-9.586-7.9,0-12.307,5.052-12.952,11.4l-13.73-3.11c1.165-10.879,11.01-20.593,26.551-20.593,19.43,0,26.813,11.007,26.813,23.572V90.261a57.1,57.1,0,0,0,.776,10.1H253.1a35.4,35.4,0,0,1-.644-8.031c-2.98,4.793-9.2,9.972-19.431,9.972-13.21,0-21.372-9.065-21.372-19.037C211.654,72,219.944,65.782,230.7,64.227ZM251.55,74.2V71.351L235.1,73.813c-4.662.776-8.417,3.365-8.417,8.548,0,4.272,3.238,8.158,9.2,8.158C244.3,90.519,251.55,86.506,251.55,74.2Z" fill="#fff"/>
      <path d="M299.476,100.364H284.452V37.286H299.09v8.421c4.145-7.255,11.655-10.234,18.651-10.234,15.414,0,22.8,11.141,22.8,25v39.892H325.51v-37.3c0-7.773-3.5-13.99-12.951-13.99-8.548,0-13.083,6.607-13.083,14.9Z" fill="#fff"/>
      <path d="M398.446,79.64c.518,5.7,4.793,10.752,12.821,10.752,6.22,0,9.458-3.369,9.458-7.255,0-3.365-2.334-5.959-7.382-6.993l-9.328-2.072c-11.137-2.462-16.968-9.714-16.968-18.393,0-11.01,10.1-20.334,23.185-20.334,17.614,0,23.314,11.4,24.352,17.613l-12.693,3.628c-.521-3.628-3.238-9.455-11.659-9.455-5.31,0-9.065,3.365-9.065,7.251,0,3.369,2.459,5.831,6.345,6.607l9.586,1.942c11.917,2.593,18.134,9.844,18.134,19.172,0,9.582-7.772,20.2-23.834,20.2-18.262,0-25.258-11.913-26.034-19.037Z" fill="#fff"/>
      <path d="M450.128,124.974V37.286h14.507v8.548c3.11-5.437,10.361-9.972,20.075-9.972,18.651,0,29.144,14.248,29.144,32.9,0,18.91-11.527,33.158-29.661,33.158-9.066,0-15.931-3.886-19.169-8.679v31.734ZM481.862,49.2c-9.845,0-16.969,7.773-16.969,19.558,0,12.045,7.124,19.817,16.969,19.817,9.972,0,16.968-7.772,16.968-19.817C498.83,56.976,491.965,49.2,481.862,49.2Z" fill="#fff"/>
      <path d="M588.856,68.761c0,19.428-13.858,33.544-32.768,33.544-18.783,0-32.641-14.116-32.641-33.544,0-19.3,13.858-33.416,32.641-33.416C575,35.345,588.856,49.462,588.856,68.761Zm-15.155,0c0-13.082-8.289-19.816-17.613-19.816-9.2,0-17.617,6.734-17.617,19.816s8.42,20.076,17.617,20.076C565.412,88.837,573.7,81.971,573.7,68.761Z" fill="#fff"/>
      <path d="M666.287,93.329a8.564,8.564,0,1,1-8.561-8.779A8.408,8.408,0,0,1,666.287,93.329Z" fill="#fff"/>
      <path d="M622.024,37.286h13.083V50.627H622.024V79.9c0,5.569,2.462,7.9,8.031,7.9a31.918,31.918,0,0,0,5.179-.517V99.716c-.907.389-3.755,1.424-9.2,1.424-11.655,0-18.91-6.993-18.91-18.779V50.627H595.473V37.286h3.238c6.734,0,9.714-4.275,9.714-9.844V17.987h13.6Z" fill="#fff"/>
      <path d="M38.081,52.058c.983-3.263,1.91-9.572-3.142-14.524a1.2,1.2,0,0,1,.831-2.053H47.21A4.1,4.1,0,0,1,49.7,36.3c6.7,5.1,5.632,12.291,4.565,15.8a2.058,2.058,0,0,1-.145.435L35.034,100.377H20.016L.936,52.53A2.062,2.062,0,0,1,.79,52.1C-.264,48.627-1.317,41.558,5.125,36.474a4.557,4.557,0,0,1,2.819-.993H19.267a1.2,1.2,0,0,1,.823,2.062c-4.818,4.717-4.178,10.677-3.266,14.044L26.961,81.54a.6.6,0,0,0,1.13,0Z" fill="#fff"/>
    </g>
    <path d="M21.439,28.771v.707a.6.6,0,0,1-.6.6H8.706a.542.542,0,0,1-.254-.036A8.662,8.662,0,0,1,5.8,29.46c-4.353-1.85-6.711-6.022-5.3-9.323s6.058-4.462,10.374-2.612c3.519,1.487,8.634,8.307,10.411,10.81A.7.7,0,0,1,21.439,28.771Zm12.174,0v.707a.6.6,0,0,0,.6.6H46.346a.542.542,0,0,0,.254-.036,8.669,8.669,0,0,0,2.648-.58c4.353-1.85,6.711-6.022,5.3-9.323s-6.058-4.462-10.375-2.612c-3.518,1.487-8.633,8.307-10.411,10.81A.7.7,0,0,0,33.613,28.771ZM27.621,0c-4.74,0-8.583,5.04-8.583,11.259a18.521,18.521,0,0,0,1.538,6.182l.018.036L21.768,20.2l.012.024,4.1,9.492a.6.6,0,0,0,.55.36h2.3a.6.6,0,0,0,.544-.36l3.891-8.858.024-.048,1.466-3.34.012-.03A18.5,18.5,0,0,0,36.2,11.259C36.2,5.04,32.362,0,27.621,0Z" fill="#34af12"/>
  </g>
</svg>
